<svg width="219" height="40" viewBox="0 0 219 40" fill="none" xmlns="http://www.w3.org/2000/svg">
<path d="M110.857 0H104V40H110.857V0Z" fill="#F02619"/>
<path d="M184 0H170.286H163.428H149.714V6.85714H158.857L163.428 2.28571V40H170.286V2.28571L174.857 6.85714H184V0Z" fill="#F02619"/>
<path d="M101.714 6.85714V0H80H78.8572H73.1429V15.4286L77.7143 20L73.1429 24.5714V40H80V23.4286H101.714V16.5714H80V2.28571L84.5715 6.85714H101.714Z" fill="#F02619"/>
<path d="M201.143 40C196.596 40 192.236 38.1939 189.021 34.979C185.806 31.7641 184 27.4037 184 22.8571V17.1429C184 12.5963 185.806 8.23594 189.021 5.02103C192.236 1.80612 196.596 0 201.143 0C205.689 0 210.05 1.80612 213.265 5.02103C216.48 8.23594 218.286 12.5963 218.286 17.1429V22.8571C218.286 27.4037 216.48 31.7641 213.265 34.979C210.05 38.1939 205.689 40 201.143 40ZM201.143 6.85714C198.415 6.85714 195.799 7.94082 193.87 9.86977C191.941 11.7987 190.857 14.4149 190.857 17.1429V22.8571C190.857 25.5851 191.941 28.2013 193.87 30.1302C195.799 32.0592 198.415 33.1429 201.143 33.1429C203.871 33.1429 206.487 32.0592 208.416 30.1302C210.345 28.2013 211.429 25.5851 211.429 22.8571V17.1429C211.429 14.4149 210.345 11.7987 208.416 9.86977C206.487 7.94082 203.871 6.85714 201.143 6.85714Z" fill="#F02619"/>
<path d="M140.571 0V22.2857V28.2857V34.2857L136.88 23.2114L120 0H113.143V40H120V17.7143V11.7143V5.71429L123.691 16.7943L140.571 40H147.429V0H140.571Z" fill="#F02619"/>
<path d="M29.7143 19.92L34.2 15.4343C33.7763 11.2048 31.7964 7.28345 28.6445 4.43143C25.4926 1.57941 21.3936 8.87632e-05 17.1429 0H0V40H17.1429C21.4188 39.9992 25.5401 38.4004 28.698 35.5174C31.8559 32.6344 33.8223 28.6754 34.2114 24.4171L29.7143 19.92ZM27.4286 22.8571C27.4286 25.5851 26.3449 28.2013 24.416 30.1302C22.487 32.0592 19.8708 33.1429 17.1429 33.1429H11.4286L6.85714 37.7143V2.28571L11.4286 6.85714H17.1429C19.8708 6.85714 22.487 7.94082 24.416 9.86977C26.3449 11.7987 27.4286 14.4149 27.4286 17.1429V22.8571Z" fill="#F02619"/>
<path d="M53.7141 40C49.1676 40 44.8072 38.1939 41.5923 34.979C38.3774 31.7641 36.5713 27.4037 36.5713 22.8571V17.1429C36.5713 12.5963 38.3774 8.23594 41.5923 5.02103C44.8072 1.80612 49.1676 0 53.7141 0C58.2607 0 62.6211 1.80612 65.836 5.02103C69.0509 8.23594 70.857 12.5963 70.857 17.1429V22.8571C70.857 27.4037 69.0509 31.7641 65.836 34.979C62.6211 38.1939 58.2607 40 53.7141 40ZM53.7141 6.85714C50.9862 6.85714 48.37 7.94082 46.441 9.86977C44.5121 11.7987 43.4284 14.4149 43.4284 17.1429V22.8571C43.4284 25.5851 44.5121 28.2013 46.441 30.1302C48.37 32.0592 50.9862 33.1429 53.7141 33.1429C56.4421 33.1429 59.0583 32.0592 60.9872 30.1302C62.9162 28.2013 63.9999 25.5851 63.9999 22.8571V17.1429C63.9999 14.4149 62.9162 11.7987 60.9872 9.86977C59.0583 7.94082 56.4421 6.85714 53.7141 6.85714Z" fill="#F02619"/>
</svg>
